# Blender v2.91.2 OBJ File: 'Modular.blend'
# www.blender.org
mtllib Trees._3.mtl
o Cube.003_Cube.010
v 50.831696 13.765235 -0.338658
v 51.094795 13.464503 -1.028943
v 50.624210 14.118331 2.359803
v 50.399536 12.925119 1.641918
v 50.501705 13.737277 1.749109
v 50.825943 12.731910 0.751224
v 50.783443 13.548323 0.372692
v 51.610950 12.641558 -0.297568
v 51.097404 13.020888 -0.711597
v 50.846237 13.914863 2.916484
v 50.603344 12.301478 2.364770
v 50.591660 13.221329 2.693315
v 51.205376 11.971639 1.340620
v 52.162216 12.120546 0.233511
v 51.033478 14.144901 -0.317468
v 51.401142 13.940474 -0.997308
v 50.847290 14.426367 2.274265
v 50.930466 14.539429 1.627480
v 51.277760 14.378760 0.450633
v 52.133820 14.089901 -0.496170
v 52.875835 13.922047 -0.656951
v 51.261932 14.398400 2.663560
v 51.744820 14.613597 2.099942
v 52.203930 14.399762 1.181581
v 52.769154 14.110178 0.347775
v 53.291985 13.952783 -0.233686
v 50.450932 12.012401 -1.897943
v 50.598274 12.845507 -2.178519
v 50.979401 11.709849 -2.729331
v 51.243660 12.461933 -3.036597
v 51.713081 11.800367 -3.092954
v 51.923885 12.173672 -3.182357
v 51.443623 11.720250 -1.399183
v 51.902153 11.472092 -2.308400
v 52.609673 12.636436 -2.730274
v 52.284344 11.710235 -2.829207
v 52.512699 12.139877 -2.931545
v 52.473083 11.512848 -0.735687
v 52.871616 11.608586 -1.771512
v 53.260246 12.290233 -2.050455
v 52.739113 11.697868 -2.478996
v 52.889133 12.008172 -2.564674
v 51.553810 13.955736 -2.144035
v 51.969101 13.545013 -2.836951
v 52.451374 13.469541 -1.560137
v 53.166023 13.309697 -1.182458
v 52.758892 13.038247 -2.321164
v 53.571651 13.352740 -0.865110
v 53.546303 12.744368 -1.570571
v 53.837997 13.012699 -1.199702
v 51.176609 12.952898 3.216716
v 51.483940 13.614353 3.356637
v 51.645546 12.175434 3.105493
v 52.246880 13.271636 3.394332
v 52.066635 11.634867 1.940020
v 52.743084 11.715416 0.793409
v 52.560314 12.256939 2.914373
v 52.946735 12.923131 3.013003
v 52.891346 12.078668 2.087915
v 53.281796 12.666597 2.058347
v 53.237320 11.992372 1.087061
v 53.697075 12.490800 1.059183
v 51.772671 14.166704 3.038999
v 52.486816 14.146101 2.748184
v 52.956535 14.008296 1.732262
v 53.423431 13.791533 0.839602
v 53.784389 13.694676 0.167966
v 53.086388 13.572623 2.695088
v 53.349339 13.328783 1.872674
v 53.912006 13.232217 0.883065
v 54.100967 13.464584 0.382368
v 53.211514 11.413830 -0.041116
v 53.680840 11.712862 -0.747884
v 53.976532 12.235857 -1.103803
v 53.578766 11.812696 0.390328
v 54.143761 12.165527 0.069319
v 54.473339 12.225828 -0.555548
v 54.251823 12.919984 -0.797929
v 54.026005 13.292768 -0.431631
v 54.209991 12.653032 -1.077091
v 54.400234 12.883035 -0.062133
v 54.271175 13.234651 -0.039407
v 54.597229 12.539013 -0.610698
vn -0.9551 -0.0143 -0.2959
vn -0.8007 -0.5418 -0.2556
vn -0.9505 -0.2407 -0.1967
vn -0.9840 0.0066 0.1779
vn -0.9560 0.1321 0.2620
vn -0.7764 -0.5740 -0.2602
vn -0.5081 -0.7458 -0.4308
vn -0.7276 0.4633 -0.5058
vn -0.8660 0.4939 -0.0782
vn -0.8409 0.4682 -0.2713
vn -0.8655 0.4889 0.1091
vn 0.0008 0.9571 -0.2897
vn -0.5392 0.6592 0.5242
vn -0.1661 0.9686 0.1850
vn 0.0537 0.9864 -0.1556
vn 0.1617 0.9692 -0.1858
vn 0.1530 0.9742 -0.1662
vn -0.9275 0.2395 0.2870
vn -0.8210 0.0014 -0.5710
vn -0.3552 -0.1738 -0.9185
vn -0.6010 -0.4927 0.6293
vn -0.3170 -0.9411 0.1180
vn -0.0288 -0.9246 -0.3799
vn 0.3383 -0.3896 -0.8566
vn 0.2001 0.5168 -0.8324
vn -0.6265 -0.6471 0.4344
vn -0.0650 -0.9967 0.0494
vn 0.2143 -0.9538 -0.2107
vn 0.8095 -0.5314 -0.2498
vn 0.5353 -0.4546 -0.7119
vn 0.7398 0.1566 -0.6544
vn -0.7808 0.6231 -0.0469
vn -0.5694 0.5056 -0.6483
vn 0.3167 0.9299 -0.1872
vn 0.2605 0.8086 -0.5275
vn 0.3728 0.1554 -0.9148
vn 0.5806 0.7958 -0.1722
vn 0.4269 0.7212 -0.5455
vn 0.7368 0.2694 -0.6201
vn 0.5110 0.7769 -0.3679
vn 0.3007 0.7169 -0.6290
vn -0.6072 0.0392 0.7936
vn -0.6255 -0.3569 0.6938
vn -0.1078 -0.1827 0.9772
vn -0.3592 -0.9127 0.1950
vn -0.2533 -0.9266 -0.2779
vn 0.2624 -0.3452 0.9011
vn 0.2724 -0.8676 0.4159
vn 0.7660 -0.4970 0.4078
vn 0.4171 -0.8864 0.2010
vn 0.7446 -0.5638 0.3573
vn -0.2624 0.5963 0.7586
vn 0.2605 0.4723 0.8421
vn 0.1550 0.8938 0.4208
vn 0.4606 0.8855 0.0602
vn 0.4475 0.8943 0.0052
vn 0.3908 0.9161 0.0898
vn 0.5164 0.3622 0.7759
vn 0.9454 -0.0245 0.3250
vn 0.7656 0.6186 0.1767
vn 0.8920 -0.0642 0.4474
vn 0.7510 0.5809 0.3141
vn 0.5915 0.7211 0.3608
vn -0.5105 -0.8361 0.2009
vn 0.1603 -0.9769 -0.1414
vn 0.6337 -0.6104 -0.4752
vn 0.3058 -0.8500 0.4289
vn 0.6514 -0.5874 0.4803
vn 0.6140 -0.7796 0.1234
vn 0.5607 -0.8179 -0.1290
vn 0.5675 0.7397 -0.3617
vn 0.7204 -0.0266 -0.6930
vn 0.6219 0.4173 -0.6627
vn 0.5194 0.7540 -0.4021
vn 0.8605 -0.1774 0.4776
vn 0.9133 0.1978 0.3561
vn 0.8148 0.5279 -0.2398
vn 0.6203 0.7539 -0.2163
vn 0.8633 -0.2380 0.4450
vn 0.6817 -0.3584 -0.6378
vn 0.7756 0.5685 -0.2742
usemtl None
s off
f 6//1 4//1 5//1 7//1
f 8//2 6//2 7//2 9//2
f 9//3 7//3 1//3 2//3
f 5//4 4//4 11//4 12//4
f 12//5 10//5 3//5 5//5
f 13//6 11//6 4//6 6//6
f 14//7 13//7 6//7 8//7
f 2//8 1//8 15//8 16//8
f 5//9 3//9 17//9 18//9
f 7//10 5//10 18//10 19//10
f 15//11 1//11 7//11 19//11
f 16//12 15//12 19//12 20//12
f 17//13 3//13 10//13 22//13
f 18//14 17//14 22//14 23//14
f 19//15 18//15 23//15 24//15
f 20//16 19//16 24//16 25//16
f 21//17 20//17 25//17 26//17
f 27//18 9//18 2//18 28//18
f 29//19 27//19 28//19 30//19
f 31//20 29//20 30//20 32//20
f 33//21 8//21 9//21 27//21
f 34//22 33//22 27//22 29//22
f 36//23 34//23 29//23 31//23
f 37//24 36//24 31//24 32//24
f 32//25 30//25 35//25 37//25
f 38//26 14//26 8//26 33//26
f 39//27 38//27 33//27 34//27
f 41//28 39//28 34//28 36//28
f 42//29 40//29 39//29 41//29
f 42//30 41//30 36//30 37//30
f 37//31 35//31 40//31 42//31
f 28//32 2//32 16//32 43//32
f 30//33 28//33 43//33 44//33
f 43//34 16//34 20//34 45//34
f 45//35 20//35 21//35 46//35
f 47//36 35//36 30//36 44//36
f 44//37 43//37 45//37 47//37
f 46//38 21//38 26//38 48//38
f 49//39 40//39 35//39 47//39
f 47//40 45//40 46//40 49//40
f 49//41 46//41 48//41 50//41
f 10//42 12//42 51//42 52//42
f 53//43 51//43 12//43 11//43
f 54//44 52//44 51//44 53//44
f 55//45 53//45 11//45 13//45
f 56//46 55//46 13//46 14//46
f 54//47 53//47 57//47 58//47
f 59//48 57//48 53//48 55//48
f 60//49 58//49 57//49 59//49
f 61//50 59//50 55//50 56//50
f 62//51 60//51 59//51 61//51
f 22//52 10//52 52//52 63//52
f 64//53 63//53 52//53 54//53
f 23//54 22//54 63//54 64//54
f 24//55 23//55 64//55 65//55
f 25//56 24//56 65//56 66//56
f 26//57 25//57 66//57 67//57
f 64//58 54//58 58//58 68//58
f 69//59 68//59 58//59 60//59
f 65//60 64//60 68//60 69//60
f 70//61 69//61 60//61 62//61
f 66//62 65//62 69//62 70//62
f 67//63 66//63 70//63 71//63
f 72//64 56//64 14//64 38//64
f 73//65 72//65 38//65 39//65
f 74//66 73//66 39//66 40//66
f 75//67 61//67 56//67 72//67
f 76//68 62//68 61//68 75//68
f 76//69 75//69 72//69 73//69
f 77//70 76//70 73//70 74//70
f 48//71 26//71 67//71 79//71
f 80//72 74//72 40//72 49//72
f 78//73 80//73 49//73 50//73
f 50//74 48//74 79//74 78//74
f 81//75 70//75 62//75 76//75
f 82//76 71//76 70//76 81//76
f 82//77 81//77 78//77 79//77
f 79//78 67//78 71//78 82//78
f 83//79 81//79 76//79 77//79
f 83//80 77//80 74//80 80//80
f 80//81 78//81 81//81 83//81
o Tree_4_LP_Cube
v 51.423786 -0.844215 1.354249
v 51.784431 0.758074 0.758074
v 51.380810 -0.844215 -1.354249
v 52.022747 0.758074 -0.758074
v 53.209568 -0.844215 1.354249
v 52.848923 0.758074 0.758074
v 53.252544 -0.844215 -1.354249
v 52.610607 0.758074 -0.758074
v 50.500774 -0.844215 0.000000
v 51.300179 1.016497 0.000000
v 54.132580 -0.844215 0.000000
v 53.333176 1.016497 0.000000
v 51.673477 2.987576 0.000000
v 52.165409 2.824056 -0.479680
v 52.467945 2.824056 -0.479680
v 52.959877 2.987576 0.000000
v 52.567703 2.824056 0.479680
v 52.065651 2.824056 0.479680
v 51.269615 3.899472 -0.000000
v 51.653328 3.740389 -0.466665
v 52.137398 3.740389 -0.466665
v 52.521111 3.899472 -0.000000
v 52.176064 3.740389 0.466665
v 51.614662 3.740389 0.466665
v 51.690304 5.526485 0.000000
v 52.086155 5.382545 -0.422246
v 52.426823 5.382545 -0.422246
v 52.822678 5.526485 0.000000
v 52.455791 5.382545 0.422246
v 52.057186 5.382545 0.422246
v 51.395073 7.708193 0.000000
v 51.753269 7.577944 -0.382079
v 52.061531 7.577944 -0.382079
v 52.419727 7.708193 0.000000
v 52.087746 7.577944 0.382080
v 51.727055 7.577944 0.382080
v 52.189854 9.572001 0.731041
v 52.006824 9.500194 0.941687
v 51.807976 9.500194 0.941687
v 51.624947 9.572001 0.731041
v 52.792885 11.038997 0.771009
v 52.679314 10.994437 0.901720
v 52.555920 10.994437 0.901720
v 52.442348 11.038997 0.771009
v 52.232670 12.383303 1.439039
v 52.158619 12.354250 1.524262
v 52.078167 12.354250 1.524262
v 52.004120 12.383303 1.439039
v 51.587914 9.011669 -0.524612
v 51.811283 8.930447 -0.762877
v 52.003517 8.930447 -0.762877
v 52.226887 9.011669 -0.524612
v 50.952072 11.111645 -1.772111
v 51.088928 11.061880 -1.918092
v 51.206707 11.061880 -1.918092
v 51.343563 11.111645 -1.772111
v 50.952072 12.682816 -2.307720
v 51.088928 12.633051 -2.453701
v 51.206707 12.633051 -2.453701
v 51.343563 12.682816 -2.307720
v 51.167706 10.829437 -1.792110
v 51.293602 10.829437 -1.792110
v 51.439892 10.882632 -1.636065
v 51.021416 10.882632 -1.636065
v 51.081078 11.304659 -1.305352
v 51.259617 11.304659 -1.305352
v 51.112698 11.200216 -1.243307
v 51.303551 11.200216 -1.243307
v 51.598690 12.771972 -0.375373
v 51.777233 12.771972 -0.375373
v 51.630314 12.667529 -0.313328
v 51.821163 12.667529 -0.313328
v 52.287468 10.761036 0.763436
v 52.678623 10.761036 0.763436
v 52.551891 10.711313 0.909292
v 52.414200 10.711313 0.909292
v 52.886875 12.800511 -0.670715
v 52.993137 12.800511 -0.670715
v 52.839924 12.716250 -0.673010
v 52.958500 12.716250 -0.673010
vt 0.375000 0.125000
vt 0.625000 0.125000
vt 0.625000 0.250000
vt 0.375000 0.250000
vt 0.625000 0.500000
vt 0.375000 0.500000
vt 0.375000 0.625000
vt 0.625000 0.625000
vt 0.625000 0.750000
vt 0.375000 0.750000
vt 0.625000 1.000000
vt 0.375000 1.000000
vt 0.125000 0.625000
vt 0.125000 0.750000
vt 0.625000 0.625000
vt 0.625000 0.750000
vt 0.625000 0.250000
vt 0.625000 0.500000
vt 0.125000 0.500000
vt 0.375000 0.000000
vt 0.625000 0.000000
vt 0.625000 1.000000
vt 0.625000 0.750000
vt 0.625000 1.000000
vt 0.625000 0.500000
vt 0.625000 0.625000
vt 0.625000 0.000000
vt 0.625000 0.125000
vt 0.625000 0.625000
vt 0.625000 0.750000
vt 0.625000 0.125000
vt 0.625000 0.000000
vt 0.625000 0.000000
vt 0.625000 0.125000
vt 0.625000 0.250000
vt 0.625000 1.000000
vt 0.625000 0.750000
vt 0.625000 1.000000
vt 0.625000 0.500000
vt 0.625000 0.500000
vt 0.625000 0.625000
vt 0.625000 0.250000
vt 0.625000 0.125000
vt 0.625000 0.000000
vt 0.625000 0.000000
vt 0.625000 0.125000
vt 0.625000 0.250000
vt 0.625000 0.125000
vt 0.625000 0.250000
vt 0.625000 0.625000
vt 0.625000 0.625000
vt 0.625000 0.625000
vt 0.625000 0.625000
vt 0.625000 0.625000
vt 0.625000 0.750000
vt 0.625000 1.000000
vt 0.875000 0.625000
vt 0.875000 0.625000
vt 0.625000 0.125000
vt 0.625000 0.000000
vt 0.625000 0.000000
vt 0.625000 0.125000
vt 0.625000 1.000000
vt 0.625000 0.750000
vt 0.625000 0.750000
vt 0.625000 1.000000
vt 0.625000 0.125000
vt 0.625000 0.000000
vt 0.625000 0.625000
vt 0.875000 0.625000
vt 0.875000 0.750000
vt 0.625000 0.750000
vt 0.875000 0.625000
vt 0.625000 1.000000
vt 0.625000 0.500000
vt 0.625000 0.250000
vt 0.625000 0.250000
vt 0.625000 0.500000
vt 0.625000 0.500000
vt 0.625000 0.625000
vt 0.875000 0.625000
vt 0.625000 0.625000
vt 0.625000 0.500000
vt 0.625000 0.625000
vt 0.625000 0.625000
vt 0.625000 0.125000
vt 0.625000 0.125000
vt 0.875000 0.625000
vt 0.625000 0.625000
vt 0.875000 0.625000
vt 0.875000 0.500000
vt 0.875000 0.625000
vt 0.625000 0.125000
vt 0.625000 0.250000
vt 0.875000 0.625000
vt 0.625000 0.625000
vt 0.625000 0.625000
vt 0.625000 0.625000
vt 0.625000 0.125000
vt 0.625000 0.125000
vt 0.875000 0.625000
vt 0.875000 0.625000
vt 0.875000 0.625000
vt 0.625000 0.125000
vt 0.625000 0.125000
vt 0.875000 0.625000
vt 0.875000 0.625000
vt 0.875000 0.625000
vt 0.625000 0.125000
vt 0.625000 0.125000
vn -0.7078 0.3954 -0.5854
vn 0.0000 0.3487 -0.9372
vn 0.7597 0.3489 0.5488
vn 0.0000 0.3487 0.9372
vn 0.0000 -1.0000 0.0000
vn 0.7767 0.1678 0.6071
vn 0.0000 0.1335 -0.9910
vn 0.7078 0.3954 -0.5854
vn -0.7597 0.3489 0.5488
vn 0.0000 0.0142 0.9999
vn 0.6549 0.2806 -0.7017
vn 0.6834 0.1368 -0.7172
vn -0.7767 0.1678 0.6071
vn -0.6834 0.1368 -0.7172
vn 0.0000 0.1335 0.9910
vn 0.7952 -0.1334 0.5914
vn -0.7298 0.2016 0.6532
vn 0.0000 0.0142 -0.9999
vn -0.7905 -0.3661 0.4910
vn 0.6919 0.3189 0.6477
vn -0.7417 -0.3676 -0.5610
vn 0.0000 0.0183 0.9998
vn 0.7010 0.1295 -0.7013
vn -0.7041 0.1931 -0.6833
vn 0.7670 -0.1301 -0.6283
vn 0.0000 0.0270 0.9996
vn 0.0000 0.0270 -0.9996
vn -0.7710 -0.1479 0.6195
vn -0.7463 -0.1505 -0.6483
vn 0.0000 0.0183 -0.9998
vn -0.7680 -0.1039 0.6319
vn 0.7250 0.1339 0.6756
vn -0.7427 -0.1005 -0.6620
vn 0.8822 -0.3542 -0.3102
vn 0.7710 -0.1479 0.6195
vn 0.0000 -0.2795 0.9601
vn 0.0000 0.3651 -0.9309
vn -0.7373 -0.4777 0.4777
vn 0.0000 0.0267 0.9996
vn -0.6482 0.3427 0.6800
vn 0.7654 -0.3297 0.5527
vn 0.0000 0.9465 0.3227
vn 0.7565 -0.0097 0.6540
vn 0.0000 0.4450 -0.8955
vn 0.0000 -0.4163 0.9092
vn 0.0000 -0.4765 -0.8792
vn 0.7463 -0.1505 -0.6483
vn 0.0000 -0.2710 -0.9626
vn 0.0000 0.3734 0.9277
vn 0.7480 -0.2142 -0.6282
vn 0.7411 -0.0840 -0.6661
vn -0.7084 -0.5065 -0.4915
vn 0.0000 -0.7776 0.6288
vn 0.0000 0.9465 -0.3227
vn -0.7480 -0.2142 -0.6282
vn 0.0000 0.3227 0.9465
vn 0.0000 -0.3227 -0.9465
vn 0.0000 0.5107 0.8597
vn 0.8455 0.0393 -0.5326
vn -0.9465 -0.1053 0.3051
vn 0.9208 0.3899 0.0044
vn 0.0000 0.9241 -0.3821
vn 0.0000 0.5353 -0.8446
vn 0.0000 -0.5353 0.8446
vn -0.8821 0.0127 0.4709
vn -0.6482 0.3426 0.6800
vn 0.0000 0.0272 -0.9996
vn -0.8364 0.4578 0.3015
vn 0.0000 -0.5921 -0.8059
vn 0.0000 0.6334 0.7738
usemtl None
s off
f 92/1/82 93/2/82 87/3/82 86/4/82
f 86/4/83 87/3/83 91/5/83 90/6/83
f 94/7/84 95/8/84 89/9/84 88/10/84
f 88/10/85 89/9/85 85/11/85 84/12/85
f 92/13/86 94/7/86 88/10/86 84/14/86
f 89/9/87 95/8/87 99/15/87 100/16/87
f 91/5/88 87/3/88 97/17/88 98/18/88
f 86/19/86 90/6/86 94/7/86 92/13/86
f 90/6/89 91/5/89 95/8/89 94/7/89
f 84/20/90 85/21/90 93/2/90 92/1/90
f 101/22/91 100/16/91 106/23/91 107/24/91
f 99/15/92 98/18/92 104/25/92 105/26/92
f 95/8/93 91/5/93 98/18/93 99/15/93
f 93/2/94 85/21/94 101/27/94 96/28/94
f 87/3/95 93/2/95 96/28/95 97/17/95
f 85/11/96 89/9/96 100/16/96 101/22/96
f 106/23/97 105/26/97 111/29/97 112/30/97
f 102/31/98 107/32/98 113/33/98 108/34/98
f 98/18/99 97/17/99 103/35/99 104/25/99
f 96/28/100 101/27/100 107/32/100 102/31/100
f 100/16/101 99/15/101 105/26/101 106/23/101
f 97/17/102 96/28/102 102/31/102 103/35/102
f 113/36/103 112/30/103 118/37/103 119/38/103
f 111/29/104 110/39/104 116/40/104 117/41/104
f 103/35/105 102/31/105 108/34/105 109/42/105
f 105/26/106 104/25/106 110/39/106 111/29/106
f 107/24/107 106/23/107 112/30/107 113/36/107
f 104/25/108 103/35/108 109/42/108 110/39/108
f 114/43/109 119/44/109 122/45/109 123/46/109
f 115/47/110 114/43/110 132/48/110 133/49/110
f 110/39/111 109/42/111 115/47/111 116/40/111
f 108/34/112 113/33/112 119/44/112 114/43/112
f 112/30/113 111/29/113 117/41/113 118/37/113
f 109/42/114 108/34/114 114/43/114 115/47/114
f 124/50/115 157/51/115 163/52/115 161/53/115
f 118/37/116 117/41/116 120/54/116 121/55/116
f 119/38/117 118/37/117 121/55/117 122/56/117
f 117/41/118 114/57/118 123/58/118 120/54/118
f 127/59/119 126/60/119 130/61/119 131/62/119
f 159/63/120 158/64/120 125/65/120 126/66/120
f 156/67/121 159/68/121 126/60/121 127/59/121
f 158/64/122 157/51/122 124/50/122 125/65/122
f 128/69/123 131/70/123 130/71/123 129/72/123
f 125/65/124 124/50/124 128/69/124 129/72/124
f 124/50/125 127/73/125 131/70/125 128/69/125
f 126/66/126 125/65/126 129/72/126 130/74/126
f 145/75/127 144/76/127 137/77/127 138/78/127
f 117/41/128 116/40/128 134/79/128 135/80/128
f 116/40/129 115/47/129 133/49/129 134/79/129
f 114/57/130 117/41/130 135/80/130 132/81/130
f 139/82/131 138/78/131 142/83/131 143/84/131
f 146/85/132 145/75/132 138/78/132 139/82/132
f 144/76/133 147/86/133 136/87/133 137/77/133
f 147/88/134 146/85/134 151/89/134 150/90/134
f 142/83/135 141/91/135 140/92/135 143/84/135
f 137/77/136 136/87/136 140/93/136 141/94/136
f 136/95/137 139/82/137 143/84/137 140/92/137
f 138/78/138 137/77/138 141/94/138 142/83/138
f 132/81/139 135/80/139 146/85/139 147/88/139
f 133/49/133 132/48/133 147/86/133 144/76/133
f 135/80/132 134/79/132 145/75/132 146/85/132
f 134/79/127 133/49/127 144/76/127 145/75/127
f 151/89/140 149/96/140 153/97/140 155/98/140
f 136/87/141 147/86/141 150/99/141 148/100/141
f 146/85/142 139/82/142 149/96/142 151/89/142
f 139/82/143 136/95/143 148/101/143 149/96/143
f 154/102/139 155/98/139 153/97/139 152/103/139
f 149/96/144 148/101/144 152/103/144 153/97/144
f 150/90/145 151/89/145 155/98/145 154/102/145
f 148/100/146 150/99/146 154/104/146 152/105/146
f 121/55/122 120/54/122 157/51/122 158/64/122
f 123/46/147 122/45/147 159/68/147 156/67/147
f 122/56/120 121/55/120 158/64/120 159/63/120
f 120/54/148 123/58/148 156/106/148 157/51/148
f 163/52/148 162/107/148 160/108/148 161/53/148
f 156/67/149 127/59/149 160/109/149 162/110/149
f 157/51/150 156/106/150 162/107/150 163/52/150
f 127/73/151 124/50/151 161/53/151 160/108/151
